<?xml version="1.0" encoding="UTF-8" standalone="no"?>
<svg
   viewBox="0 0 48 48"
   version="1.1"
   id="svg4"
   sodipodi:docname="arrow-rotate-right-solid.svg"
   width="48"
   height="48"
   inkscape:version="1.1.2 (0a00cf5339, 2022-02-04)"
   xmlns:inkscape="http://www.inkscape.org/namespaces/inkscape"
   xmlns:sodipodi="http://sodipodi.sourceforge.net/DTD/sodipodi-0.dtd"
   xmlns="http://www.w3.org/2000/svg"
   xmlns:svg="http://www.w3.org/2000/svg">
  <defs
     id="defs8">
    <filter
       style="color-interpolation-filters:sRGB;"
       inkscape:label="Invert"
       id="filter827"
       x="0"
       y="0"
       width="1"
       height="1">
      <feColorMatrix
         values="-1 0 0 0 1 0 -1 0 0 1 0 0 -1 0 1 -0.21 -0.72 -0.07 2 0 "
         result="color2"
         id="feColorMatrix825" />
    </filter>
  </defs>
  <sodipodi:namedview
     id="namedview6"
     pagecolor="#ffffff"
     bordercolor="#666666"
     borderopacity="1.0"
     inkscape:pageshadow="2"
     inkscape:pageopacity="0.0"
     inkscape:pagecheckerboard="0"
     showgrid="false"
     width="48px"
     inkscape:zoom="4.3766275"
     inkscape:cx="71.858983"
     inkscape:cy="68.54593"
     inkscape:window-width="1884"
     inkscape:window-height="970"
     inkscape:window-x="18"
     inkscape:window-y="92"
     inkscape:window-maximized="1"
     inkscape:current-layer="svg4" />
  <!--! Font Awesome Pro 6.1.1 by @fontawesome - https://fontawesome.com License - https://fontawesome.com/license (Commercial License) Copyright 2022 Fonticons, Inc. -->
  <path
     d="M 47.60108,3.9186039 V 18.431176 c 0,1.78283 -1.442184,3.225021 -3.22502,3.225021 H 29.863489 c -1.782831,0 -3.225017,-1.442191 -3.225017,-3.225021 0,-1.78283 1.442186,-3.225014 3.225017,-3.225014 h 6.388556 C 33.231613,11.205126 28.466651,8.7783008 23.39229,8.7783008 c -8.877868,0 -16.1039233,7.2240352 -16.1039233,16.1029112 0,8.878871 7.2250453,16.104927 16.1049323,16.104927 3.515269,0 6.856182,-1.111621 9.662954,-3.218967 1.433117,-1.061235 3.448752,-0.781063 4.516031,0.642482 1.067281,1.427069 0.781064,3.448754 -0.642481,4.516033 -3.933513,2.95089 -8.602733,4.52107 -13.524912,4.52107 C 10.966901,47.44634 0.83833604,37.317683 0.83833604,24.881212 c 0,-12.436474 10.12856496,-22.5650389 22.56503896,-22.5650389 6.969063,0 13.504758,3.2723831 17.747672,8.6793219 V 3.9186039 c 0,-1.7828304 1.44219,-3.22502056 3.225013,-3.22502056 1.782836,0 3.22502,1.44219016 3.22502,3.22502056 z"
     id="path2"
     style="stroke-width:0.100782;filter:url(#filter827)" />
</svg>
